<mxfile host="app.diagrams.net" modified="2022-06-07T08:42:17.805Z" agent="5.0 (Windows NT 10.0; Win64; x64) AppleWebKit/537.36 (KHTML, like Gecko) Chrome/102.0.5005.61 Safari/537.36" etag="I8OYvzQlAB70obDzIzmu" version="19.0.1" type="github">
  <diagram id="n_2ISWD5A4W3zDVkRcPj" name="第 1 页">
    <mxGraphModel dx="1422" dy="762" grid="0" gridSize="10" guides="1" tooltips="1" connect="1" arrows="1" fold="1" page="1" pageScale="1" pageWidth="1654" pageHeight="2336" math="0" shadow="0">
      <root>
        <mxCell id="0" />
        <mxCell id="1" parent="0" />
        <mxCell id="IPXky6w7YJsHBotgT66a-52" style="edgeStyle=orthogonalEdgeStyle;rounded=0;orthogonalLoop=1;jettySize=auto;html=1;" edge="1" parent="1" source="IPXky6w7YJsHBotgT66a-1" target="IPXky6w7YJsHBotgT66a-46">
          <mxGeometry relative="1" as="geometry" />
        </mxCell>
        <mxCell id="IPXky6w7YJsHBotgT66a-1" value="" style="shape=cylinder3;whiteSpace=wrap;html=1;boundedLbl=1;backgroundOutline=1;size=15;fillColor=#f5f5f5;fontColor=#333333;strokeColor=#666666;" vertex="1" parent="1">
          <mxGeometry x="151" y="126" width="150" height="91" as="geometry" />
        </mxCell>
        <mxCell id="IPXky6w7YJsHBotgT66a-2" value="" style="rounded=1;whiteSpace=wrap;html=1;" vertex="1" parent="1">
          <mxGeometry x="188" y="163" width="67" height="31" as="geometry" />
        </mxCell>
        <mxCell id="IPXky6w7YJsHBotgT66a-3" value="" style="rounded=1;whiteSpace=wrap;html=1;" vertex="1" parent="1">
          <mxGeometry x="194" y="168" width="67" height="31" as="geometry" />
        </mxCell>
        <mxCell id="IPXky6w7YJsHBotgT66a-5" value="DB" style="text;html=1;strokeColor=none;fillColor=none;align=center;verticalAlign=middle;whiteSpace=wrap;rounded=0;" vertex="1" parent="1">
          <mxGeometry x="190.5" y="127" width="60" height="30" as="geometry" />
        </mxCell>
        <mxCell id="IPXky6w7YJsHBotgT66a-6" value="table" style="rounded=1;whiteSpace=wrap;html=1;" vertex="1" parent="1">
          <mxGeometry x="199" y="172" width="67" height="31" as="geometry" />
        </mxCell>
        <mxCell id="IPXky6w7YJsHBotgT66a-17" value="源库" style="text;html=1;strokeColor=none;fillColor=none;align=center;verticalAlign=middle;whiteSpace=wrap;rounded=0;" vertex="1" parent="1">
          <mxGeometry x="194" y="56" width="60" height="30" as="geometry" />
        </mxCell>
        <mxCell id="IPXky6w7YJsHBotgT66a-18" value="备份库" style="text;html=1;strokeColor=none;fillColor=none;align=center;verticalAlign=middle;whiteSpace=wrap;rounded=0;" vertex="1" parent="1">
          <mxGeometry x="520" y="56" width="60" height="30" as="geometry" />
        </mxCell>
        <mxCell id="IPXky6w7YJsHBotgT66a-45" value="table" style="rounded=1;whiteSpace=wrap;html=1;" vertex="1" parent="1">
          <mxGeometry x="207" y="178" width="67" height="31" as="geometry" />
        </mxCell>
        <mxCell id="IPXky6w7YJsHBotgT66a-46" value="" style="shape=cylinder3;whiteSpace=wrap;html=1;boundedLbl=1;backgroundOutline=1;size=15;fillColor=#dae8fc;strokeColor=#6c8ebf;" vertex="1" parent="1">
          <mxGeometry x="477" y="126" width="150" height="91" as="geometry" />
        </mxCell>
        <mxCell id="IPXky6w7YJsHBotgT66a-47" value="" style="rounded=1;whiteSpace=wrap;html=1;" vertex="1" parent="1">
          <mxGeometry x="514" y="163" width="67" height="31" as="geometry" />
        </mxCell>
        <mxCell id="IPXky6w7YJsHBotgT66a-48" value="" style="rounded=1;whiteSpace=wrap;html=1;" vertex="1" parent="1">
          <mxGeometry x="520" y="168" width="67" height="31" as="geometry" />
        </mxCell>
        <mxCell id="IPXky6w7YJsHBotgT66a-49" value="DB" style="text;html=1;strokeColor=none;fillColor=none;align=center;verticalAlign=middle;whiteSpace=wrap;rounded=0;" vertex="1" parent="1">
          <mxGeometry x="516.5" y="127" width="60" height="30" as="geometry" />
        </mxCell>
        <mxCell id="IPXky6w7YJsHBotgT66a-50" value="table" style="rounded=1;whiteSpace=wrap;html=1;" vertex="1" parent="1">
          <mxGeometry x="525" y="172" width="67" height="31" as="geometry" />
        </mxCell>
        <mxCell id="IPXky6w7YJsHBotgT66a-51" value="table" style="rounded=1;whiteSpace=wrap;html=1;" vertex="1" parent="1">
          <mxGeometry x="533" y="178" width="67" height="31" as="geometry" />
        </mxCell>
        <mxCell id="IPXky6w7YJsHBotgT66a-68" style="edgeStyle=orthogonalEdgeStyle;rounded=0;orthogonalLoop=1;jettySize=auto;html=1;" edge="1" parent="1" source="IPXky6w7YJsHBotgT66a-69" target="IPXky6w7YJsHBotgT66a-75">
          <mxGeometry relative="1" as="geometry" />
        </mxCell>
        <mxCell id="IPXky6w7YJsHBotgT66a-69" value="" style="shape=cylinder3;whiteSpace=wrap;html=1;boundedLbl=1;backgroundOutline=1;size=15;fillColor=#f5f5f5;fontColor=#333333;strokeColor=#666666;" vertex="1" parent="1">
          <mxGeometry x="151" y="239" width="150" height="91" as="geometry" />
        </mxCell>
        <mxCell id="IPXky6w7YJsHBotgT66a-70" value="" style="rounded=1;whiteSpace=wrap;html=1;" vertex="1" parent="1">
          <mxGeometry x="188" y="276" width="67" height="31" as="geometry" />
        </mxCell>
        <mxCell id="IPXky6w7YJsHBotgT66a-71" value="" style="rounded=1;whiteSpace=wrap;html=1;" vertex="1" parent="1">
          <mxGeometry x="194" y="281" width="67" height="31" as="geometry" />
        </mxCell>
        <mxCell id="IPXky6w7YJsHBotgT66a-72" value="DB" style="text;html=1;strokeColor=none;fillColor=none;align=center;verticalAlign=middle;whiteSpace=wrap;rounded=0;" vertex="1" parent="1">
          <mxGeometry x="190.5" y="240" width="60" height="30" as="geometry" />
        </mxCell>
        <mxCell id="IPXky6w7YJsHBotgT66a-73" value="table" style="rounded=1;whiteSpace=wrap;html=1;" vertex="1" parent="1">
          <mxGeometry x="199" y="285" width="67" height="31" as="geometry" />
        </mxCell>
        <mxCell id="IPXky6w7YJsHBotgT66a-74" value="table" style="rounded=1;whiteSpace=wrap;html=1;" vertex="1" parent="1">
          <mxGeometry x="207" y="291" width="67" height="31" as="geometry" />
        </mxCell>
        <mxCell id="IPXky6w7YJsHBotgT66a-75" value="" style="shape=cylinder3;whiteSpace=wrap;html=1;boundedLbl=1;backgroundOutline=1;size=15;fillColor=#dae8fc;strokeColor=#6c8ebf;" vertex="1" parent="1">
          <mxGeometry x="477" y="239" width="150" height="91" as="geometry" />
        </mxCell>
        <mxCell id="IPXky6w7YJsHBotgT66a-76" value="" style="rounded=1;whiteSpace=wrap;html=1;" vertex="1" parent="1">
          <mxGeometry x="514" y="276" width="67" height="31" as="geometry" />
        </mxCell>
        <mxCell id="IPXky6w7YJsHBotgT66a-77" value="" style="rounded=1;whiteSpace=wrap;html=1;" vertex="1" parent="1">
          <mxGeometry x="520" y="281" width="67" height="31" as="geometry" />
        </mxCell>
        <mxCell id="IPXky6w7YJsHBotgT66a-78" value="DB" style="text;html=1;strokeColor=none;fillColor=none;align=center;verticalAlign=middle;whiteSpace=wrap;rounded=0;" vertex="1" parent="1">
          <mxGeometry x="516.5" y="240" width="60" height="30" as="geometry" />
        </mxCell>
        <mxCell id="IPXky6w7YJsHBotgT66a-79" value="table" style="rounded=1;whiteSpace=wrap;html=1;" vertex="1" parent="1">
          <mxGeometry x="525" y="285" width="67" height="31" as="geometry" />
        </mxCell>
        <mxCell id="IPXky6w7YJsHBotgT66a-80" value="table" style="rounded=1;whiteSpace=wrap;html=1;" vertex="1" parent="1">
          <mxGeometry x="533" y="291" width="67" height="31" as="geometry" />
        </mxCell>
        <mxCell id="IPXky6w7YJsHBotgT66a-81" style="edgeStyle=orthogonalEdgeStyle;rounded=0;orthogonalLoop=1;jettySize=auto;html=1;" edge="1" parent="1" source="IPXky6w7YJsHBotgT66a-82" target="IPXky6w7YJsHBotgT66a-88">
          <mxGeometry relative="1" as="geometry" />
        </mxCell>
        <mxCell id="IPXky6w7YJsHBotgT66a-82" value="" style="shape=cylinder3;whiteSpace=wrap;html=1;boundedLbl=1;backgroundOutline=1;size=15;fillColor=#f5f5f5;fontColor=#333333;strokeColor=#666666;" vertex="1" parent="1">
          <mxGeometry x="151" y="394" width="150" height="91" as="geometry" />
        </mxCell>
        <mxCell id="IPXky6w7YJsHBotgT66a-83" value="" style="rounded=1;whiteSpace=wrap;html=1;" vertex="1" parent="1">
          <mxGeometry x="188" y="431" width="67" height="31" as="geometry" />
        </mxCell>
        <mxCell id="IPXky6w7YJsHBotgT66a-84" value="" style="rounded=1;whiteSpace=wrap;html=1;" vertex="1" parent="1">
          <mxGeometry x="194" y="436" width="67" height="31" as="geometry" />
        </mxCell>
        <mxCell id="IPXky6w7YJsHBotgT66a-85" value="DB" style="text;html=1;strokeColor=none;fillColor=none;align=center;verticalAlign=middle;whiteSpace=wrap;rounded=0;" vertex="1" parent="1">
          <mxGeometry x="190.5" y="395" width="60" height="30" as="geometry" />
        </mxCell>
        <mxCell id="IPXky6w7YJsHBotgT66a-86" value="table" style="rounded=1;whiteSpace=wrap;html=1;" vertex="1" parent="1">
          <mxGeometry x="199" y="440" width="67" height="31" as="geometry" />
        </mxCell>
        <mxCell id="IPXky6w7YJsHBotgT66a-87" value="table" style="rounded=1;whiteSpace=wrap;html=1;" vertex="1" parent="1">
          <mxGeometry x="207" y="446" width="67" height="31" as="geometry" />
        </mxCell>
        <mxCell id="IPXky6w7YJsHBotgT66a-88" value="" style="shape=cylinder3;whiteSpace=wrap;html=1;boundedLbl=1;backgroundOutline=1;size=15;fillColor=#dae8fc;strokeColor=#6c8ebf;" vertex="1" parent="1">
          <mxGeometry x="477" y="394" width="150" height="91" as="geometry" />
        </mxCell>
        <mxCell id="IPXky6w7YJsHBotgT66a-89" value="" style="rounded=1;whiteSpace=wrap;html=1;" vertex="1" parent="1">
          <mxGeometry x="514" y="431" width="67" height="31" as="geometry" />
        </mxCell>
        <mxCell id="IPXky6w7YJsHBotgT66a-90" value="" style="rounded=1;whiteSpace=wrap;html=1;" vertex="1" parent="1">
          <mxGeometry x="520" y="436" width="67" height="31" as="geometry" />
        </mxCell>
        <mxCell id="IPXky6w7YJsHBotgT66a-91" value="DB" style="text;html=1;strokeColor=none;fillColor=none;align=center;verticalAlign=middle;whiteSpace=wrap;rounded=0;" vertex="1" parent="1">
          <mxGeometry x="516.5" y="395" width="60" height="30" as="geometry" />
        </mxCell>
        <mxCell id="IPXky6w7YJsHBotgT66a-92" value="table" style="rounded=1;whiteSpace=wrap;html=1;" vertex="1" parent="1">
          <mxGeometry x="525" y="440" width="67" height="31" as="geometry" />
        </mxCell>
        <mxCell id="IPXky6w7YJsHBotgT66a-93" value="table" style="rounded=1;whiteSpace=wrap;html=1;" vertex="1" parent="1">
          <mxGeometry x="533" y="446" width="67" height="31" as="geometry" />
        </mxCell>
        <mxCell id="IPXky6w7YJsHBotgT66a-94" value="&lt;font style=&quot;font-size: 24px;&quot;&gt;...&lt;/font&gt;" style="text;html=1;strokeColor=none;fillColor=none;align=center;verticalAlign=middle;whiteSpace=wrap;rounded=0;" vertex="1" parent="1">
          <mxGeometry x="197.5" y="343" width="60" height="30" as="geometry" />
        </mxCell>
        <mxCell id="IPXky6w7YJsHBotgT66a-96" value="&lt;font style=&quot;font-size: 24px;&quot;&gt;...&lt;/font&gt;" style="text;html=1;strokeColor=none;fillColor=none;align=center;verticalAlign=middle;whiteSpace=wrap;rounded=0;" vertex="1" parent="1">
          <mxGeometry x="525" y="347" width="60" height="30" as="geometry" />
        </mxCell>
        <mxCell id="IPXky6w7YJsHBotgT66a-113" style="edgeStyle=orthogonalEdgeStyle;rounded=0;orthogonalLoop=1;jettySize=auto;html=1;entryX=0;entryY=0.5;entryDx=0;entryDy=0;fontFamily=Helvetica;fontSize=14;" edge="1" parent="1" source="IPXky6w7YJsHBotgT66a-99" target="IPXky6w7YJsHBotgT66a-112">
          <mxGeometry relative="1" as="geometry" />
        </mxCell>
        <mxCell id="IPXky6w7YJsHBotgT66a-116" value="dump" style="edgeLabel;html=1;align=center;verticalAlign=middle;resizable=0;points=[];fontSize=14;fontFamily=Helvetica;" vertex="1" connectable="0" parent="IPXky6w7YJsHBotgT66a-113">
          <mxGeometry x="-0.2" y="3" relative="1" as="geometry">
            <mxPoint x="1" y="2" as="offset" />
          </mxGeometry>
        </mxCell>
        <mxCell id="IPXky6w7YJsHBotgT66a-99" value="" style="shape=cylinder3;whiteSpace=wrap;html=1;boundedLbl=1;backgroundOutline=1;size=15;fillColor=#f5f5f5;fontColor=#333333;strokeColor=#666666;" vertex="1" parent="1">
          <mxGeometry x="101" y="688" width="150" height="91" as="geometry" />
        </mxCell>
        <mxCell id="IPXky6w7YJsHBotgT66a-100" value="" style="rounded=1;whiteSpace=wrap;html=1;" vertex="1" parent="1">
          <mxGeometry x="138" y="725" width="67" height="31" as="geometry" />
        </mxCell>
        <mxCell id="IPXky6w7YJsHBotgT66a-101" value="" style="rounded=1;whiteSpace=wrap;html=1;" vertex="1" parent="1">
          <mxGeometry x="144" y="730" width="67" height="31" as="geometry" />
        </mxCell>
        <mxCell id="IPXky6w7YJsHBotgT66a-102" value="DB" style="text;html=1;strokeColor=none;fillColor=none;align=center;verticalAlign=middle;whiteSpace=wrap;rounded=0;" vertex="1" parent="1">
          <mxGeometry x="140.5" y="689" width="60" height="30" as="geometry" />
        </mxCell>
        <mxCell id="IPXky6w7YJsHBotgT66a-103" value="table" style="rounded=1;whiteSpace=wrap;html=1;" vertex="1" parent="1">
          <mxGeometry x="149" y="734" width="67" height="31" as="geometry" />
        </mxCell>
        <mxCell id="IPXky6w7YJsHBotgT66a-104" value="table" style="rounded=1;whiteSpace=wrap;html=1;" vertex="1" parent="1">
          <mxGeometry x="157" y="740" width="67" height="31" as="geometry" />
        </mxCell>
        <mxCell id="IPXky6w7YJsHBotgT66a-105" value="" style="shape=cylinder3;whiteSpace=wrap;html=1;boundedLbl=1;backgroundOutline=1;size=15;fillColor=#dae8fc;strokeColor=#6c8ebf;" vertex="1" parent="1">
          <mxGeometry x="608" y="688" width="150" height="91" as="geometry" />
        </mxCell>
        <mxCell id="IPXky6w7YJsHBotgT66a-106" value="" style="rounded=1;whiteSpace=wrap;html=1;" vertex="1" parent="1">
          <mxGeometry x="646" y="725" width="67" height="31" as="geometry" />
        </mxCell>
        <mxCell id="IPXky6w7YJsHBotgT66a-107" value="" style="rounded=1;whiteSpace=wrap;html=1;" vertex="1" parent="1">
          <mxGeometry x="652" y="730" width="67" height="31" as="geometry" />
        </mxCell>
        <mxCell id="IPXky6w7YJsHBotgT66a-108" value="DB" style="text;html=1;strokeColor=none;fillColor=none;align=center;verticalAlign=middle;whiteSpace=wrap;rounded=0;" vertex="1" parent="1">
          <mxGeometry x="653" y="692" width="60" height="30" as="geometry" />
        </mxCell>
        <mxCell id="IPXky6w7YJsHBotgT66a-109" value="table" style="rounded=1;whiteSpace=wrap;html=1;" vertex="1" parent="1">
          <mxGeometry x="657" y="734" width="67" height="31" as="geometry" />
        </mxCell>
        <mxCell id="IPXky6w7YJsHBotgT66a-110" value="table" style="rounded=1;whiteSpace=wrap;html=1;" vertex="1" parent="1">
          <mxGeometry x="665" y="740" width="67" height="31" as="geometry" />
        </mxCell>
        <mxCell id="IPXky6w7YJsHBotgT66a-114" style="edgeStyle=orthogonalEdgeStyle;rounded=0;orthogonalLoop=1;jettySize=auto;html=1;fontFamily=Helvetica;fontSize=14;" edge="1" parent="1" source="IPXky6w7YJsHBotgT66a-112" target="IPXky6w7YJsHBotgT66a-105">
          <mxGeometry relative="1" as="geometry" />
        </mxCell>
        <mxCell id="IPXky6w7YJsHBotgT66a-117" value="write" style="edgeLabel;html=1;align=center;verticalAlign=middle;resizable=0;points=[];fontSize=14;fontFamily=Helvetica;" vertex="1" connectable="0" parent="IPXky6w7YJsHBotgT66a-114">
          <mxGeometry x="-0.2358" y="2" relative="1" as="geometry">
            <mxPoint y="1" as="offset" />
          </mxGeometry>
        </mxCell>
        <mxCell id="IPXky6w7YJsHBotgT66a-112" value="&lt;font face=&quot;Helvetica&quot; style=&quot;font-size: 14px;&quot;&gt;sql file&lt;/font&gt;" style="rounded=1;whiteSpace=wrap;html=1;fontFamily=Verdana;fontSize=24;fillColor=#d5e8d4;strokeColor=#82b366;" vertex="1" parent="1">
          <mxGeometry x="391" y="712.5" width="94" height="42" as="geometry" />
        </mxCell>
        <mxCell id="IPXky6w7YJsHBotgT66a-118" value="seq脚本对表名进行的转换" style="text;html=1;strokeColor=none;fillColor=none;align=center;verticalAlign=middle;whiteSpace=wrap;rounded=0;fontFamily=Helvetica;fontSize=14;" vertex="1" parent="1">
          <mxGeometry x="370" y="654" width="140" height="42" as="geometry" />
        </mxCell>
        <mxCell id="IPXky6w7YJsHBotgT66a-120" style="edgeStyle=orthogonalEdgeStyle;rounded=0;orthogonalLoop=1;jettySize=auto;html=1;entryX=0.5;entryY=0;entryDx=0;entryDy=0;fontFamily=Helvetica;fontSize=14;" edge="1" parent="1" source="IPXky6w7YJsHBotgT66a-119" target="IPXky6w7YJsHBotgT66a-112">
          <mxGeometry relative="1" as="geometry" />
        </mxCell>
        <mxCell id="IPXky6w7YJsHBotgT66a-119" value="seq" style="ellipse;whiteSpace=wrap;html=1;fontFamily=Helvetica;fontSize=14;fillColor=#ffe6cc;strokeColor=#d79b00;" vertex="1" parent="1">
          <mxGeometry x="402.5" y="595" width="71" height="43" as="geometry" />
        </mxCell>
        <mxCell id="IPXky6w7YJsHBotgT66a-122" value="" style="shape=cylinder3;whiteSpace=wrap;html=1;boundedLbl=1;backgroundOutline=1;size=15;fillColor=#f5f5f5;fontColor=#333333;strokeColor=#666666;" vertex="1" parent="1">
          <mxGeometry x="52" y="942" width="150" height="91" as="geometry" />
        </mxCell>
        <mxCell id="IPXky6w7YJsHBotgT66a-123" value="" style="rounded=1;whiteSpace=wrap;html=1;" vertex="1" parent="1">
          <mxGeometry x="89" y="979" width="67" height="31" as="geometry" />
        </mxCell>
        <mxCell id="IPXky6w7YJsHBotgT66a-124" value="" style="rounded=1;whiteSpace=wrap;html=1;" vertex="1" parent="1">
          <mxGeometry x="95" y="984" width="67" height="31" as="geometry" />
        </mxCell>
        <mxCell id="IPXky6w7YJsHBotgT66a-125" value="DB" style="text;html=1;strokeColor=none;fillColor=none;align=center;verticalAlign=middle;whiteSpace=wrap;rounded=0;" vertex="1" parent="1">
          <mxGeometry x="91.5" y="943" width="60" height="30" as="geometry" />
        </mxCell>
        <mxCell id="IPXky6w7YJsHBotgT66a-126" value="table" style="rounded=1;whiteSpace=wrap;html=1;" vertex="1" parent="1">
          <mxGeometry x="100" y="988" width="67" height="31" as="geometry" />
        </mxCell>
        <mxCell id="IPXky6w7YJsHBotgT66a-127" value="table" style="rounded=1;whiteSpace=wrap;html=1;" vertex="1" parent="1">
          <mxGeometry x="108" y="994" width="67" height="31" as="geometry" />
        </mxCell>
        <mxCell id="IPXky6w7YJsHBotgT66a-138" style="edgeStyle=orthogonalEdgeStyle;rounded=0;orthogonalLoop=1;jettySize=auto;html=1;entryX=1;entryY=0.5;entryDx=0;entryDy=0;fontFamily=Helvetica;fontSize=14;" edge="1" parent="1" source="IPXky6w7YJsHBotgT66a-128" target="IPXky6w7YJsHBotgT66a-137">
          <mxGeometry relative="1" as="geometry" />
        </mxCell>
        <mxCell id="IPXky6w7YJsHBotgT66a-139" value="dump" style="edgeLabel;html=1;align=center;verticalAlign=middle;resizable=0;points=[];fontSize=14;fontFamily=Helvetica;" vertex="1" connectable="0" parent="IPXky6w7YJsHBotgT66a-138">
          <mxGeometry x="-0.2844" y="4" relative="1" as="geometry">
            <mxPoint x="-9" y="-4" as="offset" />
          </mxGeometry>
        </mxCell>
        <mxCell id="IPXky6w7YJsHBotgT66a-128" value="" style="shape=cylinder3;whiteSpace=wrap;html=1;boundedLbl=1;backgroundOutline=1;size=15;fillColor=#dae8fc;strokeColor=#6c8ebf;" vertex="1" parent="1">
          <mxGeometry x="703" y="942" width="150" height="91" as="geometry" />
        </mxCell>
        <mxCell id="IPXky6w7YJsHBotgT66a-129" value="" style="rounded=1;whiteSpace=wrap;html=1;" vertex="1" parent="1">
          <mxGeometry x="740" y="979" width="67" height="31" as="geometry" />
        </mxCell>
        <mxCell id="IPXky6w7YJsHBotgT66a-130" value="" style="rounded=1;whiteSpace=wrap;html=1;" vertex="1" parent="1">
          <mxGeometry x="746" y="984" width="67" height="31" as="geometry" />
        </mxCell>
        <mxCell id="IPXky6w7YJsHBotgT66a-131" value="DB" style="text;html=1;strokeColor=none;fillColor=none;align=center;verticalAlign=middle;whiteSpace=wrap;rounded=0;" vertex="1" parent="1">
          <mxGeometry x="742.5" y="943" width="60" height="30" as="geometry" />
        </mxCell>
        <mxCell id="IPXky6w7YJsHBotgT66a-132" value="table" style="rounded=1;whiteSpace=wrap;html=1;" vertex="1" parent="1">
          <mxGeometry x="751" y="988" width="67" height="31" as="geometry" />
        </mxCell>
        <mxCell id="IPXky6w7YJsHBotgT66a-133" value="table" style="rounded=1;whiteSpace=wrap;html=1;" vertex="1" parent="1">
          <mxGeometry x="759" y="994" width="67" height="31" as="geometry" />
        </mxCell>
        <mxCell id="IPXky6w7YJsHBotgT66a-134" style="edgeStyle=orthogonalEdgeStyle;rounded=0;orthogonalLoop=1;jettySize=auto;html=1;entryX=0;entryY=0.5;entryDx=0;entryDy=0;fontFamily=Helvetica;fontSize=14;" edge="1" parent="1" target="IPXky6w7YJsHBotgT66a-136">
          <mxGeometry relative="1" as="geometry">
            <mxPoint x="202" y="989" as="sourcePoint" />
          </mxGeometry>
        </mxCell>
        <mxCell id="IPXky6w7YJsHBotgT66a-135" value="dump" style="edgeLabel;html=1;align=center;verticalAlign=middle;resizable=0;points=[];fontSize=14;fontFamily=Helvetica;" vertex="1" connectable="0" parent="IPXky6w7YJsHBotgT66a-134">
          <mxGeometry x="-0.2" y="3" relative="1" as="geometry">
            <mxPoint x="1" y="2" as="offset" />
          </mxGeometry>
        </mxCell>
        <mxCell id="IPXky6w7YJsHBotgT66a-136" value="&lt;font face=&quot;Helvetica&quot; style=&quot;font-size: 14px;&quot;&gt;sql file&lt;/font&gt;" style="rounded=1;whiteSpace=wrap;html=1;fontFamily=Verdana;fontSize=24;fillColor=#d5e8d4;strokeColor=#82b366;" vertex="1" parent="1">
          <mxGeometry x="309" y="968" width="94" height="42" as="geometry" />
        </mxCell>
        <mxCell id="IPXky6w7YJsHBotgT66a-137" value="&lt;font face=&quot;Helvetica&quot; style=&quot;font-size: 14px;&quot;&gt;sql file&lt;/font&gt;" style="rounded=1;whiteSpace=wrap;html=1;fontFamily=Verdana;fontSize=24;fillColor=#d5e8d4;strokeColor=#82b366;" vertex="1" parent="1">
          <mxGeometry x="505" y="966.5" width="94" height="42" as="geometry" />
        </mxCell>
        <mxCell id="IPXky6w7YJsHBotgT66a-140" value="" style="html=1;shadow=0;dashed=0;align=center;verticalAlign=middle;shape=mxgraph.arrows2.twoWayArrow;dy=0.65;dx=22;fontFamily=Helvetica;fontSize=14;fillColor=#f8cecc;strokeColor=#b85450;" vertex="1" parent="1">
          <mxGeometry x="413" y="981.25" width="86" height="20.5" as="geometry" />
        </mxCell>
        <mxCell id="IPXky6w7YJsHBotgT66a-143" value="&lt;b&gt;diff&lt;/b&gt;" style="text;html=1;strokeColor=none;fillColor=none;align=center;verticalAlign=middle;whiteSpace=wrap;rounded=0;fontFamily=Helvetica;fontSize=14;" vertex="1" parent="1">
          <mxGeometry x="426" y="947" width="60" height="30" as="geometry" />
        </mxCell>
      </root>
    </mxGraphModel>
  </diagram>
</mxfile>
